<svg  xmlns="http://www.w3.org/2000/svg" id="ekastrapoint-logo" data-name="Layer 1" viewBox="0 0 180 25.66"><defs ><style >.cls-1{fill:#23274F;}</style><style  type="text/css"> .st0{fill:#fff;} </style></defs><g  id="l-ekstra"><path  d="M36.21,17.4a4.32,4.32,0,0,0,4.9.28,2.67,2.67,0,0,0,1.12-1.34h3.69a7,7,0,0,1-2.72,3.92,8,8,0,0,1-4.42,1.18,8.74,8.74,0,0,1-3.24-.58,6.75,6.75,0,0,1-2.45-1.63,7.36,7.36,0,0,1-1.55-2.54A9.33,9.33,0,0,1,31,13.45a8.77,8.77,0,0,1,.57-3.19,7.43,7.43,0,0,1,1.59-2.55A7.63,7.63,0,0,1,35.61,6a7.93,7.93,0,0,1,3.17-.61,7.24,7.24,0,0,1,3.39.75,6.73,6.73,0,0,1,2.37,2,8.35,8.35,0,0,1,1.35,2.89,10.87,10.87,0,0,1,.29,3.39h-11A4.25,4.25,0,0,0,36.21,17.4Zm4.74-8a3,3,0,0,0-2.29-.83A3.55,3.55,0,0,0,37,8.89a3.08,3.08,0,0,0-1.63,1.9,5.57,5.57,0,0,0-.19,1H42A4.77,4.77,0,0,0,41,9.38Z" class="cls-1"></path><path  d="M52.91,0V11.29l5.28-5.48h5l-5.75,5.6,6.4,9.64H58.72l-4.18-6.81L52.91,15.8v5.25H48.73V0Z" class="cls-1"></path><path  d="M68.27,17.26a2.41,2.41,0,0,0,.72.8,3.06,3.06,0,0,0,1,.46,4.68,4.68,0,0,0,1.19.15,4.36,4.36,0,0,0,.93-.11,3.14,3.14,0,0,0,.89-.32,2.19,2.19,0,0,0,.66-.59,1.55,1.55,0,0,0,.26-.93c0-.63-.41-1.1-1.25-1.42a25,25,0,0,0-3.49-.94c-.61-.14-1.21-.3-1.79-.49a5.93,5.93,0,0,1-1.54-.73A3.65,3.65,0,0,1,64.77,12a3.34,3.34,0,0,1-.41-1.7,4.54,4.54,0,0,1,.58-2.42,4.31,4.31,0,0,1,1.51-1.49,6.58,6.58,0,0,1,2.13-.76A12.82,12.82,0,0,1,71,5.4a11.91,11.91,0,0,1,2.4.23,6.26,6.26,0,0,1,2.08.8A4.8,4.8,0,0,1,77,7.92a5.05,5.05,0,0,1,.72,2.34h-4a1.86,1.86,0,0,0-.92-1.64,4.23,4.23,0,0,0-1.94-.42,7.1,7.1,0,0,0-.77,0,2.58,2.58,0,0,0-.75.19,1.55,1.55,0,0,0-.58.43A1.28,1.28,0,0,0,69,10.53,3.43,3.43,0,0,0,70,11.1a13.23,13.23,0,0,0,1.52.4l1.74.38c.6.14,1.2.31,1.78.5a5.8,5.8,0,0,1,1.55.79,3.8,3.8,0,0,1,1.09,1.2,3.64,3.64,0,0,1,.41,1.79,4.9,4.9,0,0,1-.6,2.52A5,5,0,0,1,76,20.32a6.58,6.58,0,0,1-2.23.87,13.44,13.44,0,0,1-2.55.25,12.37,12.37,0,0,1-2.59-.27,7,7,0,0,1-2.26-.88,5.08,5.08,0,0,1-1.62-1.64A5.17,5.17,0,0,1,64,16.1h4A2.24,2.24,0,0,0,68.27,17.26Z" class="cls-1"></path><path  d="M88.92,5.81v2.8H85.85v7.55a2.05,2.05,0,0,0,.35,1.41,2,2,0,0,0,1.42.36c.23,0,.46,0,.68,0a6.17,6.17,0,0,0,.62-.09v3.24a10,10,0,0,1-1.18.12l-1.27,0a12.12,12.12,0,0,1-1.85-.13,4.26,4.26,0,0,1-1.53-.52,2.76,2.76,0,0,1-1-1.09,4,4,0,0,1-.38-1.86v-9H79.13V5.81h2.53V1.24h4.19V5.81Z" class="cls-1"></path><path  d="M95,5.81V8.64H95a5,5,0,0,1,.79-1.31A5.09,5.09,0,0,1,97,6.3a5.57,5.57,0,0,1,1.39-.67,4.89,4.89,0,0,1,1.53-.23,3.11,3.11,0,0,1,.91.14v3.9c-.19,0-.43-.08-.7-.11a7.39,7.39,0,0,0-.8,0,4.58,4.58,0,0,0-2,.38,3.48,3.48,0,0,0-1.28,1.05,4.3,4.3,0,0,0-.69,1.55,8.28,8.28,0,0,0-.21,1.91v6.87H91V5.81Z" class="cls-1"></path><path  d="M102.33,10.5a4.79,4.79,0,0,1,.73-2.45,4.92,4.92,0,0,1,1.65-1.56A6.87,6.87,0,0,1,107,5.65a12.52,12.52,0,0,1,2.52-.25,16.8,16.8,0,0,1,2.33.16,7.27,7.27,0,0,1,2.15.63,4.25,4.25,0,0,1,1.59,1.31,3.64,3.64,0,0,1,.62,2.23v7.93a15.72,15.72,0,0,0,.12,2,3.65,3.65,0,0,0,.41,1.41h-4.24a5.42,5.42,0,0,1-.19-.72,6.16,6.16,0,0,1-.11-.75A5.36,5.36,0,0,1,109.81,21a9.26,9.26,0,0,1-2.77.42,7.38,7.38,0,0,1-2-.27,4.73,4.73,0,0,1-1.65-.82,4,4,0,0,1-1.11-1.42,4.87,4.87,0,0,1-.4-2,4.49,4.49,0,0,1,.46-2.14,3.85,3.85,0,0,1,1.18-1.34,5.2,5.2,0,0,1,1.65-.76,17.25,17.25,0,0,1,1.87-.39q.94-.15,1.86-.24a10.92,10.92,0,0,0,1.62-.27,2.65,2.65,0,0,0,1.12-.51,1.13,1.13,0,0,0,.39-1,2.35,2.35,0,0,0-.22-1.08,1.65,1.65,0,0,0-.59-.61,2.37,2.37,0,0,0-.86-.3,6.85,6.85,0,0,0-1-.07,3.13,3.13,0,0,0-1.94.53,2.37,2.37,0,0,0-.83,1.77ZM112,13.59a1.88,1.88,0,0,1-.67.37,6.58,6.58,0,0,1-.85.22q-.47.09-1,.15c-.33,0-.67.09-1,.15a9,9,0,0,0-.93.23,2.73,2.73,0,0,0-.8.4,1.87,1.87,0,0,0-.54.64,2,2,0,0,0-.21,1,1.92,1.92,0,0,0,.21.94,1.5,1.5,0,0,0,.56.61,2.5,2.5,0,0,0,.82.31,5.25,5.25,0,0,0,1,.09,3.63,3.63,0,0,0,1.91-.42,2.74,2.74,0,0,0,1-1,3.25,3.25,0,0,0,.39-1.16,8.05,8.05,0,0,0,.08-.94Z" class="cls-1"></path></g><g  id="l-point"><path  d="M121.13,5.84V8.73h.05a5,5,0,0,1,2.11-2.46,6.38,6.38,0,0,1,3.32-.87,6.62,6.62,0,0,1,3,.64,6.23,6.23,0,0,1,2.14,1.76A7.58,7.58,0,0,1,133,10.36a11.81,11.81,0,0,1,0,6.17,7.49,7.49,0,0,1-1.27,2.56,6,6,0,0,1-2.14,1.74,6.76,6.76,0,0,1-3,.64,6.67,6.67,0,0,1-1.65-.21,5.71,5.71,0,0,1-1.53-.62,5,5,0,0,1-1.26-1,4.52,4.52,0,0,1-.84-1.45h-.06v8.5h-1.85V5.84Zm10.18,5.26A6.46,6.46,0,0,0,130.43,9a4.91,4.91,0,0,0-1.55-1.49A4.32,4.32,0,0,0,126.61,7a5.65,5.65,0,0,0-2.57.53,4.63,4.63,0,0,0-1.65,1.41,5.68,5.68,0,0,0-.87,2.07,12.41,12.41,0,0,0-.25,2.48,10.39,10.39,0,0,0,.28,2.34,6,6,0,0,0,.92,2.08,4.94,4.94,0,0,0,1.65,1.49,5,5,0,0,0,2.49.57,4.32,4.32,0,0,0,2.27-.57,4.91,4.91,0,0,0,1.55-1.49,6.37,6.37,0,0,0,.88-2.08,10,10,0,0,0,0-4.69Z" class="cls-1"></path><path  d="M145.54,6a6.94,6.94,0,0,1,2.25,1.74,7.68,7.68,0,0,1,1.39,2.55,10.56,10.56,0,0,1,0,6.23,7.68,7.68,0,0,1-1.39,2.55,6.62,6.62,0,0,1-2.25,1.72,7.76,7.76,0,0,1-6.17,0,6.62,6.62,0,0,1-2.25-1.72,7.68,7.68,0,0,1-1.39-2.55,10.56,10.56,0,0,1,0-6.23,7.68,7.68,0,0,1,1.39-2.55A6.94,6.94,0,0,1,139.37,6a7.76,7.76,0,0,1,6.17,0Zm-5.41,1.48A5,5,0,0,0,138.46,9a6.68,6.68,0,0,0-1,2.08,8.47,8.47,0,0,0,0,4.75,6.58,6.58,0,0,0,1,2.08,5,5,0,0,0,1.67,1.47,4.59,4.59,0,0,0,2.33.56,4.65,4.65,0,0,0,2.33-.56,5.1,5.1,0,0,0,1.66-1.47,6.58,6.58,0,0,0,1-2.08,8.47,8.47,0,0,0,0-4.75,6.68,6.68,0,0,0-1-2.08,5.1,5.1,0,0,0-1.66-1.47A4.75,4.75,0,0,0,142.46,7,4.7,4.7,0,0,0,140.13,7.52Z" class="cls-1"></path><path  d="M154,0V3h-1.86V0Zm0,5.84V21.05h-1.86V5.84Z" class="cls-1"></path><path  d="M159,5.84V8.46h.06A4.52,4.52,0,0,1,161,6.24a5.55,5.55,0,0,1,3-.84,7.42,7.42,0,0,1,2.67.41A4.19,4.19,0,0,1,168.35,7a4.42,4.42,0,0,1,.92,1.85,10.68,10.68,0,0,1,.26,2.44v9.79h-1.86V11.56a9.35,9.35,0,0,0-.17-1.81,3.86,3.86,0,0,0-.62-1.46,3.06,3.06,0,0,0-1.2-1A4.46,4.46,0,0,0,163.81,7a4.65,4.65,0,0,0-2,.4,4.22,4.22,0,0,0-1.47,1.09,5,5,0,0,0-.95,1.65,6.92,6.92,0,0,0-.37,2.08v8.87h-1.85V5.84Z" class="cls-1"></path><path  d="M178.47,5.84V7.4h-3.1V17.66a3.28,3.28,0,0,0,.25,1.43c.17.35.59.54,1.26.58a14.12,14.12,0,0,0,1.59-.09v1.56c-.28,0-.55,0-.83,0s-.55,0-.82,0a3.69,3.69,0,0,1-2.6-.72,3.64,3.64,0,0,1-.71-2.67V7.4h-2.65V5.84h2.65V1.27h1.86V5.84Z" class="cls-1"></path></g><g  id="l-coin"><path  d="M11.69,1.38h0a11.69,11.69,0,0,1,11.7,11.69h0a11.7,11.7,0,0,1-11.7,11.7h0A11.7,11.7,0,0,1,0,13.07H0A11.69,11.69,0,0,1,11.69,1.38Z" class="cls-1"></path><path  d="M11.69,23.42A10.36,10.36,0,1,1,22.05,13.07,10.36,10.36,0,0,1,11.69,23.42Zm0-20.17a9.82,9.82,0,1,0,9.82,9.82A9.82,9.82,0,0,0,11.69,3.25Z" class="st0"></path><path  d="M6.73,16.79v-7h5v1.17H8v1.64h3.28V13.7H8v1.92h3.73v1.17Z" class="st0"></path><path  d="M15.72,14.26H14.23v2.53H13v-7h2.76A2.18,2.18,0,0,1,18.2,12,2.18,2.18,0,0,1,15.72,14.26Zm-.05-3.39H14.23v2.27h1.44c.86,0,1.24-.46,1.24-1.13S16.53,10.87,15.67,10.87Z" class="st0"></path></g></svg>